Coordinates
version=1
nRows=14
nColumns=40
inDegrees=yes

Units are S.I. units (second, meters, Newtons, ...)
Angles are in degrees.

endheader
time	pelvis_tilt	pelvis_list	pelvis_rotation	pelvis_tx	pelvis_ty	pelvis_tz	hip_flexion_r	hip_adduction_r	hip_rotation_r	knee_angle_r	knee_angle_r_beta	ankle_angle_r	subtalar_angle_r	mtp_angle_r	hip_flexion_l	hip_adduction_l	hip_rotation_l	knee_angle_l	knee_angle_l_beta	ankle_angle_l	subtalar_angle_l	mtp_angle_l	lumbar_extension	lumbar_bending	lumbar_rotation	arm_flex_r	arm_add_r	arm_rot_r	elbow_flex_r	pro_sup_r	wrist_flex_r	wrist_dev_r	arm_flex_l	arm_add_l	arm_rot_l	elbow_flex_l	pro_sup_l	wrist_flex_l	wrist_dev_l
     52.31000000	     -5.78695265	     -4.52503650	     -8.36850266	      0.95503267	      0.92598074	      0.40987246	     27.18895639	      0.44497649	     -6.20490828	     23.07907431	     23.07907431	      5.68409247	      0.63373085	     -2.18295693	      9.08724874	     -4.05578289	     -9.65571506	     21.30070060	     21.30070060	     19.47555940	    -13.45925195	      4.18601109	    -10.30934882	      7.58077102	      1.99075171	    -12.40345113	    -11.92268515	    -11.54195168	     25.15906144	     46.38148297	      0.00000000	      0.00000000	     37.24502545	    -22.73712362	      0.60540846	     59.67500186	     47.05660839	      0.00000000	      0.00000000
     52.32957143	     -5.90693451	     -4.26775891	     -8.83282845	      0.95559388	      0.92542667	      0.41270630	     26.79440164	      0.47884910	     -7.04631608	     20.15762969	     20.15762969	      6.12757157	      4.35848104	      1.20774619	      8.14680692	     -3.88501475	    -10.34342013	     20.22159709	     20.22159709	     18.95265751	    -13.19331585	      2.36565475	    -10.15879296	      7.41323831	      1.83349111	    -14.61831071	    -11.96812632	    -10.62849132	     28.44134452	     46.14274522	      0.00000000	      0.00000000	     38.10269069	    -23.19895290	     -1.24869794	     62.19853484	     47.25788655	      0.00000000	      0.00000000
     52.34914286	     -5.93381800	     -4.01741732	     -9.24995257	      0.95652968	      0.92479024	      0.41579518	     26.27814415	      0.61728662	     -7.34260754	     17.72217915	     17.72217915	      5.57295421	      6.27984631	      2.05617059	      7.15720593	     -3.69209045	    -10.90615267	     19.32028937	     19.32028937	     19.14021715	    -12.79403234	      2.21012117	     -9.95606465	      7.22301200	      1.87798188	    -15.50548389	    -11.77750654	    -10.41389532	     28.39984455	     46.12106707	      0.00000000	      0.00000000	     39.53669955	    -23.62575163	     -1.60806714	     63.12047135	     47.31238822	      0.00000000	      0.00000000
     52.36871429	     -5.88334377	     -3.77230388	     -9.61610750	      0.95786175	      0.92390340	      0.41891937	     25.99284024	      0.54619212	     -8.13869105	     16.54034034	     16.54034034	      5.39145793	      8.38565795	      2.68042683	      6.10391541	     -3.51636041	    -11.58373424	     18.49402428	     18.49402428	     19.21832611	    -12.21720952	      1.41751297	     -9.88154185	      7.08714406	      2.03271223	    -16.66269720	    -11.67431827	     -9.93802636	     29.31092602	     46.03886572	      0.00000000	      0.00000000	     40.70068186	    -23.85855166	     -2.43880805	     64.73216667	     47.41381724	      0.00000000	      0.00000000
     52.38828571	     -5.85429799	     -3.60567284	     -9.91621269	      0.95948218	      0.92294019	      0.42224355	     25.73876196	      0.62809716	     -8.38634813	     15.90019207	     15.90019207	      4.86376770	      8.91552587	      2.10700236	      5.09128468	     -3.41063021	    -12.07660177	     17.72943167	     17.72943167	     19.21719961	    -11.87701988	      0.53677585	     -9.73392788	      7.07673670	      1.96701696	    -17.57767069	    -11.68747965	     -9.06552084	     30.51082440	     45.92690280	      0.00000000	      0.00000000	     41.49488220	    -24.13498779	     -3.55251892	     66.29141353	     47.53479754	      0.00000000	      0.00000000
     52.40785714	     -5.80010913	     -3.42560708	    -10.18404696	      0.96139295	      0.92203005	      0.42573023	     25.63595555	      0.64814906	     -8.44207530	     16.06877508	     16.06877508	      4.60081234	      8.79212460	      1.60636502	      4.05417818	     -3.27153991	    -12.46829652	     17.01303333	     17.01303333	     19.48182608	    -11.48729131	      0.47373474	     -9.60575627	      7.08339150	      2.14450792	    -17.99037669	    -11.52593885	     -8.86000720	     30.39614034	     45.91650149	      0.00000000	      0.00000000	     42.54061018	    -24.31544320	     -3.90628912	     67.16315131	     47.58382129	      0.00000000	      0.00000000
     52.42742857	     -5.75901167	     -3.32873703	    -10.36361958	      0.96362627	      0.92098447	      0.42943637	     25.42138234	      0.79244405	     -8.24985233	     16.34238329	     16.34238329	      3.47787510	      7.76298112	     -2.09102013	      3.14692795	     -3.30032872	    -12.94229119	     16.57956276	     16.57956276	     19.78427600	    -10.91508446	      0.16829682	     -9.41539827	      7.14701855	      1.95448154	    -18.14391793	    -11.52081319	     -8.22312610	     30.55686223	     45.88101024	      0.00000000	      0.00000000	     42.91975495	    -24.53647428	     -5.17941482	     68.84038849	     47.70994942	      0.00000000	      0.00000000
     52.44700000	     -5.79813266	     -3.36755677	    -10.44598923	      0.96592492	      0.92013275	      0.43323714	     25.35655332	      0.97377921	     -8.37403477	     17.15009000	     17.15009000	      3.57957904	      7.21159000	     -2.40874180	      2.36914092	     -3.46297993	    -13.03186499	     16.24055847	     16.24055847	     20.01211416	    -10.80209054	      0.20577066	     -9.17038957	      7.45060777	      1.97614191	    -18.23326265	    -11.43289619	     -8.17484467	     30.46858385	     45.88144577	      0.00000000	      0.00000000	     43.75489957	    -24.78744814	     -5.36583914	     69.27629135	     47.73665741	      0.00000000	      0.00000000
     52.46657143	     -5.63314566	     -3.13292745	    -10.59170505	      0.96851635	      0.91944721	      0.43735282	     25.28137108	      1.03914335	     -7.36705880	     18.33108197	     18.33108197	      3.05862260	      4.88226133	     -5.26193117	      1.35033328	     -3.35588812	    -13.61173425	     15.85762194	     15.85762194	     20.48855711	     -9.94112836	      0.61393568	     -9.12154491	      7.32507227	      1.92934597	    -17.87977334	    -11.39418883	     -7.78237998	     29.82358552	     45.90485622	      0.00000000	      0.00000000	     43.85619785	    -24.83191507	     -6.47100676	     70.96942347	     47.84466380	      0.00000000	      0.00000000
     52.48614286	     -5.56226225	     -3.03057150	    -10.60767693	      0.97107536	      0.91896130	      0.44148565	     25.23613864	      1.14064773	     -6.87559486	     19.60536507	     19.60536507	      3.42951430	      3.54439623	     -5.63941480	      0.53258920	     -3.39961852	    -13.76953015	     15.62717901	     15.62717901	     20.63901027	     -9.67221148	      0.76761147	     -8.99366155	      7.39998166	      2.05534906	    -17.75251541	    -11.33470972	     -7.70572738	     29.68447106	     45.91034283	      0.00000000	      0.00000000	     44.40619811	    -24.78763664	     -6.69267961	     71.61070145	     47.87490557	      0.00000000	      0.00000000
     52.50571429	     -5.45708109	     -2.97445706	    -10.56773950	      0.97360316	      0.91876259	      0.44580735	     25.03792331	      1.31029902	     -6.39065912	     20.71638435	     20.71638435	      3.87309699	      2.31341930	     -5.87146762	     -0.17376951	     -3.55670997	    -13.89793036	     15.67721172	     15.67721172	     20.75782199	     -9.43967076	      0.90523000	     -8.92156561	      7.45945066	      2.11478532	    -17.51221521	    -11.35046430	     -7.67407928	     29.58264655	     45.91755585	      0.00000000	      0.00000000	     44.80355316	    -24.77780713	     -6.96945020	     72.18177867	     47.90645946	      0.00000000	      0.00000000
     52.52528571	     -5.39436168	     -3.03433882	    -10.40615220	      0.97605830	      0.91888424	      0.45012574	     24.68678475	      1.54898363	     -6.23550866	     21.50058112	     21.50058112	      4.32232079	      1.57826888	     -6.02081529	     -0.73712808	     -3.88418818	    -13.86024916	     15.88947597	     15.88947597	     20.75647865	     -9.33482375	      0.99946904	     -8.84218439	      7.66511541	      2.10151239	    -17.19097509	    -11.44083186	     -7.67175784	     29.58362928	     45.92170911	      0.00000000	      0.00000000	     45.08207790	    -24.68646595	     -7.10716270	     72.54058029	     47.92391269	      0.00000000	      0.00000000
     52.54485714	     -5.45030724	     -2.94715783	    -10.24942687	      0.97839452	      0.91922779	      0.45455623	     24.26081154	      1.68145250	     -6.08838460	     21.81708053	     21.81708053	      4.82513017	      1.28241638	     -6.15525563	     -1.08101560	     -4.10745647	    -13.85750786	     16.16897156	     16.16897156	     20.52193543	     -9.29624929	      1.09604804	     -8.56452255	      7.67481749	      2.09052725	    -16.96353615	    -11.51929786	     -7.67877194	     29.62222161	     45.92315701	      0.00000000	      0.00000000	     45.19067175	    -24.57491525	     -7.14342443	     72.70914176	     47.92998524	      0.00000000	      0.00000000
     52.56442857	     -5.26556655	     -2.92630846	    -10.01632274	      0.98050054	      0.91993503	      0.45890827	     23.70717853	      1.83690865	     -5.88662235	     22.35433515	     22.35433515	      5.40235573	      0.67097562	     -6.20744013	     -1.42385813	     -4.43581264	    -13.75904764	     16.92610736	     16.92610736	     20.38632560	     -9.31820232	      1.09868333	     -8.66460437	      7.66324531	      2.05636524	    -16.46321790	    -11.69738080	     -7.69223949	     29.69681254	     45.92657567	      0.00000000	      0.00000000	     45.28578670	    -24.26512969	     -7.21970975	     73.02688593	     47.94114258	      0.00000000	      0.00000000
